<?xml version="1.0" encoding="UTF-8" standalone="no"?>
<!DOCTYPE svg PUBLIC "-//W3C//DTD SVG 1.1//EN" "http://www.w3.org/Graphics/SVG/1.1/DTD/svg11.dtd">
<svg width="100%" height="100%" viewBox="0 0 284 284" version="1.1" xmlns="http://www.w3.org/2000/svg" xmlns:xlink="http://www.w3.org/1999/xlink" xml:space="preserve" xmlns:serif="http://www.serif.com/" style="fill-rule:evenodd;clip-rule:evenodd;stroke-linejoin:round;stroke-miterlimit:2;">
    <g id="Layer-1" serif:id="Layer 1">
        <path d="M209.762,45.352L164.412,79.37L141.731,73.697L119.053,79.37L73.701,45.352L56.693,170.082L102.047,238.112L181.42,238.112L226.772,170.082L209.762,45.352ZM124.723,128.778L124.723,119.049L79.364,107.717L73.701,170.082L113.384,221.104L170.083,221.104L209.762,170.082L204.1,107.717L158.739,119.049L158.739,128.778L192.752,121.973L187.082,139.138L158.739,145.497L158.739,175.745L141.731,187.082L124.723,175.745L124.723,145.449L96.381,139.138L90.71,121.973L124.723,128.778ZM141.731,102.044L153.075,107.715L141.731,124.722L130.392,107.715L141.731,102.044Z" style="fill:none;stroke:black;stroke-width:1px;"/>
    </g>
</svg>
